<svg xmlns="http://www.w3.org/2000/svg" xmlns:xlink="http://www.w3.org/1999/xlink" viewBox="275 -54 44 44"><defs><style>.a,.b,.e{fill:none;}.a{clip-rule:evenodd;}.c{clip-path:url(#a);}.d{clip-path:url(#b);}.e{stroke:#fff;stroke-width:4px;}.f{clip-path:url(#c);}.g{fill:#fff;}</style><clipPath id="a"><path class="a" d="M22-3A22,22,0,0,0,44-25,22,22,0,0,0,22-47,22,22,0,0,0,0-25,22,22,0,0,0,22-3Z" transform="translate(0 47)"/></clipPath><clipPath id="b"><path class="b" d="M-60,80H535V-107H-60Z" transform="translate(0 47)"/></clipPath><clipPath id="c"><path class="a" d="M23.315-12H18.437V-23.5H16v-3.963h2.437v-2.379c0-3.233,1.375-5.156,5.286-5.156h3.255v3.964H24.944c-1.522,0-1.623.554-1.623,1.587l-.007,1.984H27L26.569-23.5H23.314V-12Z" transform="translate(0 47)"/></clipPath></defs><g transform="translate(107 -214)"><g class="c" transform="translate(168 160)"><g class="d"><path class="e" d="M22,44A22,22,0,1,0,0,22,22,22,0,0,0,22,44Z"/></g></g><g class="f" transform="translate(168 160)"><g class="d"><path class="g" d="M11-7H32V-40H11Z" transform="translate(0 47)"/></g></g></g></svg>