<svg xmlns="http://www.w3.org/2000/svg" xmlns:xlink="http://www.w3.org/1999/xlink" viewBox="396 -51 44 44"><defs><style>.a,.b,.e{fill:none;}.a{clip-rule:evenodd;}.c{clip-path:url(#a);}.d{clip-path:url(#b);}.e{stroke:#fff;stroke-width:4px;}.f{clip-path:url(#c);}.g{fill:#fff;}</style><clipPath id="a"><path class="a" d="M143,0a22,22,0,0,0,22-22,22,22,0,0,0-22-22,22,22,0,0,0-22,22A22,22,0,0,0,143,0Z" transform="translate(0 47)"/></clipPath><clipPath id="b"><path class="b" d="M-60,80H535V-107H-60Z" transform="translate(0 47)"/></clipPath><clipPath id="c"><path class="a" d="M131-21.7a12.283,12.283,0,0,0,8.206,11.674c.6.113.819-.267.819-.593,0-.292-.01-1.066-.016-2.092-3.338.743-4.042-1.65-4.042-1.65a3.239,3.239,0,0,0-1.333-1.8c-1.09-.764.082-.748.082-.748a2.527,2.527,0,0,1,1.838,1.268,2.52,2.52,0,0,0,3.493,1.022,2.658,2.658,0,0,1,.762-1.645c-2.664-.31-5.466-1.366-5.466-6.08a4.825,4.825,0,0,1,1.235-3.3A4.531,4.531,0,0,1,136.7-28.9s1.008-.332,3.3,1.261a11.232,11.232,0,0,1,3-.414,11.248,11.248,0,0,1,3,.414c2.29-1.592,3.3-1.261,3.3-1.261a4.527,4.527,0,0,1,.119,3.256,4.816,4.816,0,0,1,1.233,3.3c0,4.726-2.805,5.766-5.479,6.071a2.976,2.976,0,0,1,.814,2.278c0,1.645-.014,2.972-.014,3.376,0,.329.216.712.825.591A12.284,12.284,0,0,0,155-21.7,12.156,12.156,0,0,0,143-34,12.155,12.155,0,0,0,131-21.7Z" transform="translate(0 47)"/></clipPath></defs><g transform="translate(107 -214)"><g class="c" transform="translate(168 160)"><g class="d"><path class="e" d="M22,44A22,22,0,1,0,0,22,22,22,0,0,0,22,44Z" transform="translate(121 3)"/></g></g><g class="f" transform="translate(168 160)"><g class="d"><path class="g" d="M126-5h34V-39H126Z" transform="translate(0 47)"/></g></g></g></svg>