<svg xmlns="http://www.w3.org/2000/svg" xmlns:xlink="http://www.w3.org/1999/xlink" viewBox="77 -1207 230 160"><defs><style>.a{clip-path:url(#b);}.b{fill:#fff;}.b,.c,.d,.e{stroke:#03a9f4;stroke-width:10px;}.c,.g{fill:none;}.d{fill:#1a88cf;}.e{fill:#91ddff;}.f{stroke:none;}</style><clipPath id="b"><rect x="77" y="-1207" width="230" height="160"/></clipPath></defs><g id="a" class="a"><g transform="translate(43 -1227)"><g class="b" transform="translate(52 35)"><path class="f" d="M70,0H194a0,0,0,0,1,0,0V60a70,70,0,0,1-70,70H0a0,0,0,0,1,0,0V70A70,70,0,0,1,70,0Z"/><path class="g" d="M70,5H184a5,5,0,0,1,5,5V60a65,65,0,0,1-65,65H10a5,5,0,0,1-5-5V70A65,65,0,0,1,70,5Z"/></g><g class="c" transform="translate(84 35)"><circle class="f" cx="65" cy="65" r="65"/><circle class="g" cx="65" cy="65" r="60"/></g><g class="d" transform="translate(105 56)"><circle class="f" cx="44" cy="44" r="44"/><circle class="g" cx="44" cy="44" r="39"/></g><path class="e" d="M19.5,5A14.5,14.5,0,1,1,5,19.5,14.5,14.5,0,0,1,19.5,5Z" transform="translate(130 81)"/></g></g></svg>