<svg xmlns="http://www.w3.org/2000/svg" xmlns:xlink="http://www.w3.org/1999/xlink" viewBox="219 -54 44 44"><defs><style>.a,.b,.e{fill:none;}.a{clip-rule:evenodd;}.c{clip-path:url(#a);}.d{clip-path:url(#b);}.e{stroke:#fff;stroke-width:4px;}.f{clip-path:url(#c);}.g{fill:#fff;}</style><clipPath id="a"><path class="a" d="M22,0A22,22,0,0,0,44-22,22,22,0,0,0,22-44,22,22,0,0,0,0-22,22,22,0,0,0,22,0Z" transform="translate(0 44)"/></clipPath><clipPath id="b"><path class="b" d="M-257,81H338V-106H-257Z" transform="translate(0 44)"/></clipPath><clipPath id="c"><path class="a" d="M13.112-25.068q.417.273,2.517,1.619t3.217,2.074q.123.08.522.347t.663.432q.264.165.638.369a3.854,3.854,0,0,0,.706.307,2.088,2.088,0,0,0,.614.1h.025a2.088,2.088,0,0,0,.614-.1,3.86,3.86,0,0,0,.706-.307q.374-.2.638-.369t.663-.432q.4-.267.522-.347L30.9-25.068a5.633,5.633,0,0,0,1.5-1.4,2.852,2.852,0,0,0,.6-1.716,1.681,1.681,0,0,0-.583-1.284A1.977,1.977,0,0,0,31.036-30H12.964a1.816,1.816,0,0,0-1.455.591A2.183,2.183,0,0,0,11-27.932a2.546,2.546,0,0,0,.675,1.551A5.9,5.9,0,0,0,13.112-25.068Zm18.661,1.216q-4.026,2.523-6.114,3.92-.7.477-1.136.744a7.234,7.234,0,0,1-1.16.545,3.778,3.778,0,0,1-1.35.278h-.025a3.779,3.779,0,0,1-1.35-.278,7.241,7.241,0,0,1-1.16-.545q-.436-.267-1.136-.744-1.657-1.125-6.1-3.92A6.4,6.4,0,0,1,11-24.841v9.023a1.688,1.688,0,0,0,.577,1.284A1.97,1.97,0,0,0,12.964-14H31.036a1.97,1.97,0,0,0,1.387-.534A1.688,1.688,0,0,0,33-15.818v-9.023A6.65,6.65,0,0,1,31.772-23.852Z" transform="translate(0 44)"/></clipPath></defs><g transform="translate(219 -54)"><g class="c"><g class="d"><path class="e" d="M22,44A22,22,0,1,0,0,22,22,22,0,0,0,22,44Z"/></g></g><g class="f"><g class="d"><path class="g" d="M6-9H38V-35H6Z" transform="translate(0 44)"/></g></g></g></svg>