<svg xmlns="http://www.w3.org/2000/svg" xmlns:xlink="http://www.w3.org/1999/xlink" viewBox="336 -54 44 44"><defs><style>.a,.b,.e{fill:none;}.a{clip-rule:evenodd;}.c{clip-path:url(#a);}.d{clip-path:url(#b);}.e{stroke:#fff;stroke-width:4px;}.f{clip-path:url(#c);}.g{fill:#fff;}</style><clipPath id="a"><path class="a" d="M83-3a22,22,0,0,0,22-22A22,22,0,0,0,83-47,22,22,0,0,0,61-25,22,22,0,0,0,83-3Z" transform="translate(0 47)"/></clipPath><clipPath id="b"><path class="b" d="M-60,80H535V-107H-60Z" transform="translate(0 47)"/></clipPath><clipPath id="c"><path class="a" d="M91.526-30.154a4.51,4.51,0,0,0,1.893-2.513,8.355,8.355,0,0,1-2.736,1.1A4.194,4.194,0,0,0,87.539-33a4.43,4.43,0,0,0-4.307,4.544,4.753,4.753,0,0,0,.11,1.035,12.033,12.033,0,0,1-8.88-4.748,4.724,4.724,0,0,0-.583,2.285A4.616,4.616,0,0,0,75.8-26.1a4.154,4.154,0,0,1-1.952-.568v.056A4.489,4.489,0,0,0,77.3-22.158a4.011,4.011,0,0,1-1.136.16,4.051,4.051,0,0,1-.81-.081,4.345,4.345,0,0,0,4.024,3.155,8.364,8.364,0,0,1-5.351,1.945A8.137,8.137,0,0,1,73-17.041,11.748,11.748,0,0,0,79.6-15c7.926,0,12.257-6.924,12.257-12.929,0-.2,0-.394-.011-.588A9.006,9.006,0,0,0,94-30.869,8.257,8.257,0,0,1,91.526-30.154Z" transform="translate(0 47)"/></clipPath></defs><g transform="translate(107 -214)"><g class="c" transform="translate(168 160)"><g class="d"><path class="e" d="M22,44A22,22,0,1,0,0,22,22,22,0,0,0,22,44Z" transform="translate(61)"/></g></g><g class="f" transform="translate(168 160)"><g class="d"><path class="g" d="M68-10H99V-38H68Z" transform="translate(0 47)"/></g></g></g></svg>